<svg xmlns="http://www.w3.org/2000/svg" xmlns:xlink="http://www.w3.org/1999/xlink" version="1.1" width="1000" height="1000" viewBox="0 0 1000 1000" xml:space="preserve">
<desc>Created with Fabric.js 3.5.0</desc>
<defs>
</defs>
<rect x="0" y="0" width="100%" height="100%" fill="rgba(255,255,255,0)"/>
<g transform="matrix(41.9157 0 0 41.9157 499.9996 499.9997)" id="352123">
<path style="stroke: none; stroke-width: 1; stroke-dasharray: none; stroke-linecap: butt; stroke-dashoffset: 0; stroke-linejoin: miter; stroke-miterlimit: 4; is-custom-font: none; font-file-url: none; fill: rgb(6,182,212); fill-rule: evenodd; opacity: 1;" vector-effect="non-scaling-stroke" transform=" translate(-12, -12)" d="M 6.30147 15.5771 C 4.77832 14.2684 3.6904 12.7726 3.18002 12 C 3.6904 11.2274 4.77832 9.73158 6.30147 8.42294 C 7.87402 7.07185 9.81574 6 12 6 C 14.1843 6 16.1261 7.07185 17.6986 8.42294 C 19.2218 9.73158 20.3097 11.2274 20.8201 12 C 20.3097 12.7726 19.2218 14.2684 17.6986 15.5771 C 16.1261 16.9282 14.1843 18 12 18 C 9.81574 18 7.87402 16.9282 6.30147 15.5771 Z M 12 4 C 9.14754 4 6.75717 5.39462 4.99812 6.90595 C 3.23268 8.42276 2.00757 10.1376 1.46387 10.9698 C 1.05306 11.5985 1.05306 12.4015 1.46387 13.0302 C 2.00757 13.8624 3.23268 15.5772 4.99812 17.0941 C 6.75717 18.6054 9.14754 20 12 20 C 14.8525 20 17.2429 18.6054 19.002 17.0941 C 20.7674 15.5772 21.9925 13.8624 22.5362 13.0302 C 22.947 12.4015 22.947 11.5985 22.5362 10.9698 C 21.9925 10.1376 20.7674 8.42276 19.002 6.90595 C 17.2429 5.39462 14.8525 4 12 4 Z M 10 12 C 10 10.8954 10.8955 10 12 10 C 13.1046 10 14 10.8954 14 12 C 14 13.1046 13.1046 14 12 14 C 10.8955 14 10 13.1046 10 12 Z M 12 8 C 9.7909 8 8.00004 9.79086 8.00004 12 C 8.00004 14.2091 9.7909 16 12 16 C 14.2092 16 16 14.2091 16 12 C 16 9.79086 14.2092 8 12 8 Z" stroke-linecap="round"/>
</g>
</svg>