<svg xmlns="http://www.w3.org/2000/svg" xmlns:xlink="http://www.w3.org/1999/xlink" version="1.1" width="1000" height="1000" viewBox="0 0 1000 1000" xml:space="preserve">
<desc>Created with Fabric.js 3.5.0</desc>
<defs>
</defs>
<rect x="0" y="0" width="100%" height="100%" fill="rgba(255,255,255,0)"/>
<g transform="matrix(41.9157 0 0 41.9157 499.9996 499.9997)" id="966147">
<path style="stroke: none; stroke-width: 1; stroke-dasharray: none; stroke-linecap: butt; stroke-dashoffset: 0; stroke-linejoin: miter; stroke-miterlimit: 4; is-custom-font: none; font-file-url: none; fill: rgb(6,182,212); fill-rule: evenodd; opacity: 1;" vector-effect="non-scaling-stroke" transform=" translate(-12, -12)" d="M 19.7071 5.70711 C 20.0976 5.31658 20.0976 4.68342 19.7071 4.29289 C 19.3166 3.90237 18.6834 3.90237 18.2929 4.29289 L 14.032 8.55382 C 13.4365 8.20193 12.7418 8 12 8 C 9.79086 8 8 9.79086 8 12 C 8 12.7418 8.20193 13.4365 8.55382 14.032 L 4.29289 18.2929 C 3.90237 18.6834 3.90237 19.3166 4.29289 19.7071 C 4.68342 20.0976 5.31658 20.0976 5.70711 19.7071 L 9.96803 15.4462 C 10.5635 15.7981 11.2582 16 12 16 C 14.2091 16 16 14.2091 16 12 C 16 11.2582 15.7981 10.5635 15.4462 9.96803 L 19.7071 5.70711 Z M 12.518 10.0677 C 12.3528 10.0236 12.1792 10 12 10 C 10.8954 10 10 10.8954 10 12 C 10 12.1792 10.0236 12.3528 10.0677 12.518 L 12.518 10.0677 Z M 11.482 13.9323 L 13.9323 11.482 C 13.9764 11.6472 14 11.8208 14 12 C 14 13.1046 13.1046 14 12 14 C 11.8208 14 11.6472 13.9764 11.482 13.9323 Z M 15.7651 4.8207 C 14.6287 4.32049 13.3675 4 12 4 C 9.14754 4 6.75717 5.39462 4.99812 6.90595 C 3.23268 8.42276 2.00757 10.1376 1.46387 10.9698 C 1.05306 11.5985 1.05306 12.4015 1.46387 13.0302 C 1.92276 13.7326 2.86706 15.0637 4.21194 16.3739 L 5.62626 14.9596 C 4.4555 13.8229 3.61144 12.6531 3.18002 12 C 3.6904 11.2274 4.77832 9.73158 6.30147 8.42294 C 7.87402 7.07185 9.81574 6 12 6 C 12.7719 6 13.5135 6.13385 14.2193 6.36658 L 15.7651 4.8207 Z M 12 18 C 11.2282 18 10.4866 17.8661 9.78083 17.6334 L 8.23496 19.1793 C 9.37136 19.6795 10.6326 20 12 20 C 14.8525 20 17.2429 18.6054 19.002 17.0941 C 20.7674 15.5772 21.9925 13.8624 22.5362 13.0302 C 22.947 12.4015 22.947 11.5985 22.5362 10.9698 C 22.0773 10.2674 21.133 8.93627 19.7881 7.62611 L 18.3738 9.04043 C 19.5446 10.1771 20.3887 11.3469 20.8201 12 C 20.3097 12.7726 19.2218 14.2684 17.6986 15.5771 C 16.1261 16.9282 14.1843 18 12 18 Z" stroke-linecap="round"/>
</g>
</svg>